<mxfile host="app.diagrams.net" agent="Mozilla/5.0 (Windows NT 10.0; Win64; x64; rv:137.0) Gecko/20100101 Firefox/137.0" version="26.2.10">
  <diagram name="Page-1" id="e7e014a7-5840-1c2e-5031-d8a46d1fe8dd">
    <mxGraphModel dx="1428" dy="826" grid="0" gridSize="10" guides="1" tooltips="1" connect="1" arrows="1" fold="1" page="1" pageScale="1" pageWidth="1169" pageHeight="826" background="none" math="0" shadow="0" adaptiveColors="none">
      <root>
        <mxCell id="0" />
        <mxCell id="1" parent="0" />
        <mxCell id="2" value="Device 1 (Upload)" style="swimlane;whiteSpace=wrap;startSize=23;rounded=0;labelBackgroundColor=none;fillColor=#FAE5C7;strokeColor=#0F8B8D;fontColor=#143642;" parent="1" vertex="1">
          <mxGeometry x="389" y="17" width="370" height="792" as="geometry">
            <mxRectangle x="164.5" y="128" width="90" height="30" as="alternateBounds" />
          </mxGeometry>
        </mxCell>
        <mxCell id="eYp77SEdqhD2MMEc281C-98" value="" style="ellipse;shape=startState;strokeColor=none;labelBackgroundColor=none;html=1;rounded=0;fillColor=#FAE5C7;fontColor=#143642;" parent="2" vertex="1">
          <mxGeometry x="172.5" y="697" width="25" height="25" as="geometry" />
        </mxCell>
        <mxCell id="5" value="" style="ellipse;shape=startState;rounded=0;labelBackgroundColor=none;fillColor=#FAE5C7;strokeColor=#A8201A;fontColor=#143642;" parent="2" vertex="1">
          <mxGeometry x="170" y="38" width="30" height="30" as="geometry" />
        </mxCell>
        <mxCell id="6" value="" style="edgeStyle=elbowEdgeStyle;elbow=horizontal;verticalAlign=bottom;endArrow=open;endSize=8;endFill=1;rounded=0;exitX=0.5;exitY=1;exitDx=0;exitDy=0;labelBackgroundColor=none;fontColor=default;strokeColor=#A8201A;" parent="2" source="5" target="7" edge="1">
          <mxGeometry x="100" y="40" as="geometry">
            <mxPoint x="94.75" y="108" as="targetPoint" />
          </mxGeometry>
        </mxCell>
        <mxCell id="7" value="Open ByteBag" style="rounded=0;labelBackgroundColor=none;fillColor=#FAE5C7;strokeColor=#0F8B8D;fontColor=#143642;" parent="2" vertex="1">
          <mxGeometry x="130" y="104" width="110" height="50" as="geometry" />
        </mxCell>
        <mxCell id="11" value="" style="endArrow=open;endFill=1;rounded=0;exitX=0.5;exitY=1;exitDx=0;exitDy=0;entryX=0.5;entryY=0;entryDx=0;entryDy=0;labelBackgroundColor=none;fontColor=default;strokeColor=#A8201A;" parent="2" source="eYp77SEdqhD2MMEc281C-62" target="10" edge="1">
          <mxGeometry relative="1" as="geometry">
            <mxPoint x="117.5" y="413" as="targetPoint" />
          </mxGeometry>
        </mxCell>
        <mxCell id="eYp77SEdqhD2MMEc281C-41" value="Sharing toÂ &#xa;same account" style="rhombus;rounded=0;labelBackgroundColor=none;fillColor=#FAE5C7;strokeColor=#0F8B8D;fontColor=#143642;" parent="2" vertex="1">
          <mxGeometry x="120.625" y="365" width="128.75" height="68" as="geometry" />
        </mxCell>
        <mxCell id="eYp77SEdqhD2MMEc281C-42" value="" style="endArrow=open;endFill=1;rounded=0;exitX=0.5;exitY=1;exitDx=0;exitDy=0;labelBackgroundColor=none;fontColor=default;strokeColor=#A8201A;" parent="2" source="eYp77SEdqhD2MMEc281C-59" target="eYp77SEdqhD2MMEc281C-41" edge="1">
          <mxGeometry relative="1" as="geometry">
            <mxPoint x="395.62" y="463" as="sourcePoint" />
            <mxPoint x="395.62" y="625" as="targetPoint" />
          </mxGeometry>
        </mxCell>
        <mxCell id="eYp77SEdqhD2MMEc281C-52" value="" style="endArrow=open;endFill=1;rounded=0;labelBackgroundColor=none;fontColor=default;strokeColor=#A8201A;entryX=0.5;entryY=0;entryDx=0;entryDy=0;" parent="2" source="7" target="eYp77SEdqhD2MMEc281C-56" edge="1">
          <mxGeometry relative="1" as="geometry">
            <mxPoint x="346.25" y="288" as="sourcePoint" />
            <mxPoint x="347.25" y="386" as="targetPoint" />
          </mxGeometry>
        </mxCell>
        <mxCell id="eYp77SEdqhD2MMEc281C-56" value="&lt;div&gt;Log in&lt;/div&gt;" style="whiteSpace=wrap;html=1;rounded=0;labelBackgroundColor=none;fillColor=#FAE5C7;strokeColor=#0F8B8D;fontColor=#143642;" parent="2" vertex="1">
          <mxGeometry x="148.875" y="189" width="72.25" height="45" as="geometry" />
        </mxCell>
        <mxCell id="10" value="Share link" style="rounded=0;labelBackgroundColor=none;fillColor=#FAE5C7;strokeColor=#0F8B8D;fontColor=#143642;" parent="2" vertex="1">
          <mxGeometry x="130" y="542" width="110" height="50" as="geometry" />
        </mxCell>
        <mxCell id="eYp77SEdqhD2MMEc281C-59" value="Upload FIle" style="rounded=0;labelBackgroundColor=none;fillColor=#FAE5C7;strokeColor=#0F8B8D;fontColor=#143642;" parent="2" vertex="1">
          <mxGeometry x="147.5" y="275" width="75" height="50" as="geometry" />
        </mxCell>
        <mxCell id="eYp77SEdqhD2MMEc281C-60" value="" style="endArrow=open;endFill=1;rounded=0;exitX=0.5;exitY=1;exitDx=0;exitDy=0;labelBackgroundColor=none;fontColor=default;strokeColor=#A8201A;" parent="2" source="eYp77SEdqhD2MMEc281C-56" target="eYp77SEdqhD2MMEc281C-59" edge="1">
          <mxGeometry relative="1" as="geometry">
            <mxPoint x="344.75" y="381" as="sourcePoint" />
            <mxPoint x="344.75" y="453" as="targetPoint" />
          </mxGeometry>
        </mxCell>
        <mxCell id="eYp77SEdqhD2MMEc281C-43" value="&lt;div&gt;no&lt;/div&gt;" style="text;html=1;align=center;verticalAlign=middle;resizable=0;points=[];autosize=1;strokeColor=none;fillColor=none;rounded=0;labelBackgroundColor=none;fontColor=#143642;" parent="2" vertex="1">
          <mxGeometry x="176" y="430" width="40" height="30" as="geometry" />
        </mxCell>
        <mxCell id="eYp77SEdqhD2MMEc281C-62" value="Copy link" style="rounded=0;labelBackgroundColor=none;fillColor=#FAE5C7;strokeColor=#0F8B8D;fontColor=#143642;" parent="2" vertex="1">
          <mxGeometry x="130" y="463" width="110" height="50" as="geometry" />
        </mxCell>
        <mxCell id="eYp77SEdqhD2MMEc281C-63" value="" style="endArrow=open;endFill=1;rounded=0;exitX=0.5;exitY=1;exitDx=0;exitDy=0;entryX=0.5;entryY=0;entryDx=0;entryDy=0;labelBackgroundColor=none;fontColor=default;strokeColor=#A8201A;" parent="2" source="eYp77SEdqhD2MMEc281C-41" target="eYp77SEdqhD2MMEc281C-62" edge="1">
          <mxGeometry relative="1" as="geometry">
            <mxPoint x="438.25" y="548" as="sourcePoint" />
            <mxPoint x="438.25" y="658" as="targetPoint" />
          </mxGeometry>
        </mxCell>
        <mxCell id="eYp77SEdqhD2MMEc281C-97" value="" style="ellipse;shape=startState;fillColor=none;labelBackgroundColor=none;html=1;rounded=0;strokeColor=#A8201A;fontColor=#143642;" parent="2" vertex="1">
          <mxGeometry x="170" y="694.5" width="30" height="30" as="geometry" />
        </mxCell>
        <mxCell id="eYp77SEdqhD2MMEc281C-46" value="&lt;div&gt;yes&lt;/div&gt;" style="text;html=1;align=center;verticalAlign=middle;resizable=0;points=[];autosize=1;strokeColor=none;fillColor=none;rounded=0;labelBackgroundColor=none;fontColor=#143642;" parent="2" vertex="1">
          <mxGeometry x="321" y="369" width="40" height="30" as="geometry" />
        </mxCell>
        <mxCell id="3" value="Device 3 (Download authenticated)" style="swimlane;whiteSpace=wrap;rounded=0;labelBackgroundColor=none;fillColor=#FAE5C7;strokeColor=#0F8B8D;fontColor=#143642;" parent="1" vertex="1">
          <mxGeometry x="759" y="17" width="270" height="792" as="geometry">
            <mxRectangle x="444.5" y="128" width="90" height="30" as="alternateBounds" />
          </mxGeometry>
        </mxCell>
        <mxCell id="15" value="Open Bytebag" style="rounded=0;labelBackgroundColor=none;fillColor=#FAE5C7;strokeColor=#0F8B8D;fontColor=#143642;" parent="3" vertex="1">
          <mxGeometry x="78.75" y="374" width="114.5" height="50" as="geometry" />
        </mxCell>
        <mxCell id="16" value="Check for &#xa;new available files" style="rounded=0;labelBackgroundColor=none;fillColor=#FAE5C7;strokeColor=#0F8B8D;fontColor=#143642;" parent="3" vertex="1">
          <mxGeometry x="80" y="529" width="110" height="50" as="geometry" />
        </mxCell>
        <mxCell id="17" value="" style="endArrow=open;endFill=1;rounded=0;labelBackgroundColor=none;fontColor=default;strokeColor=#A8201A;" parent="3" source="15" target="16" edge="1">
          <mxGeometry relative="1" as="geometry" />
        </mxCell>
        <mxCell id="18" value="Download file" style="rounded=0;labelBackgroundColor=none;fillColor=#FAE5C7;strokeColor=#0F8B8D;fontColor=#143642;" parent="3" vertex="1">
          <mxGeometry x="80" y="684.5" width="110" height="50" as="geometry" />
        </mxCell>
        <mxCell id="19" value="" style="endArrow=open;endFill=1;rounded=0;labelBackgroundColor=none;fontColor=default;strokeColor=#A8201A;" parent="3" source="16" target="18" edge="1">
          <mxGeometry relative="1" as="geometry" />
        </mxCell>
        <mxCell id="20" value="" style="endArrow=open;endFill=1;rounded=0;entryX=1;entryY=0.5;entryDx=0;entryDy=0;exitX=0;exitY=0.5;exitDx=0;exitDy=0;labelBackgroundColor=none;fontColor=default;strokeColor=#A8201A;" parent="1" source="10" target="eYp77SEdqhD2MMEc281C-102" edge="1">
          <mxGeometry relative="1" as="geometry" />
        </mxCell>
        <mxCell id="eYp77SEdqhD2MMEc281C-88" value="Device 2 (Download not authenticated)" style="swimlane;whiteSpace=wrap;startSize=23;rounded=0;labelBackgroundColor=none;fillColor=#FAE5C7;strokeColor=#0F8B8D;fontColor=#143642;" parent="1" vertex="1">
          <mxGeometry x="140" y="17" width="249" height="792" as="geometry">
            <mxRectangle x="444.5" y="128" width="90" height="30" as="alternateBounds" />
          </mxGeometry>
        </mxCell>
        <mxCell id="eYp77SEdqhD2MMEc281C-89" value="Paste link&#xa;on browser" style="rounded=0;labelBackgroundColor=none;fillColor=#FAE5C7;strokeColor=#0F8B8D;fontColor=#143642;" parent="eYp77SEdqhD2MMEc281C-88" vertex="1">
          <mxGeometry x="89.5" y="613" width="70" height="50" as="geometry" />
        </mxCell>
        <mxCell id="eYp77SEdqhD2MMEc281C-90" value="Download file" style="rounded=0;labelBackgroundColor=none;fillColor=#FAE5C7;strokeColor=#0F8B8D;fontColor=#143642;" parent="eYp77SEdqhD2MMEc281C-88" vertex="1">
          <mxGeometry x="69.5" y="684.5" width="110" height="50" as="geometry" />
        </mxCell>
        <mxCell id="eYp77SEdqhD2MMEc281C-91" value="" style="endArrow=open;endFill=1;rounded=0;labelBackgroundColor=none;fontColor=default;strokeColor=#A8201A;" parent="eYp77SEdqhD2MMEc281C-88" source="eYp77SEdqhD2MMEc281C-89" target="eYp77SEdqhD2MMEc281C-90" edge="1">
          <mxGeometry relative="1" as="geometry" />
        </mxCell>
        <mxCell id="eYp77SEdqhD2MMEc281C-102" value="Open&#xa;browser" style="rounded=0;labelBackgroundColor=none;fillColor=#FAE5C7;strokeColor=#0F8B8D;fontColor=#143642;" parent="eYp77SEdqhD2MMEc281C-88" vertex="1">
          <mxGeometry x="89.5" y="542" width="70" height="50" as="geometry" />
        </mxCell>
        <mxCell id="eYp77SEdqhD2MMEc281C-103" value="" style="endArrow=open;endFill=1;rounded=0;entryX=0.5;entryY=0;entryDx=0;entryDy=0;exitX=0.5;exitY=1;exitDx=0;exitDy=0;labelBackgroundColor=none;fontColor=default;strokeColor=#A8201A;" parent="eYp77SEdqhD2MMEc281C-88" source="eYp77SEdqhD2MMEc281C-102" target="eYp77SEdqhD2MMEc281C-89" edge="1">
          <mxGeometry relative="1" as="geometry">
            <mxPoint x="394.5" y="577" as="sourcePoint" />
            <mxPoint x="169.5" y="577" as="targetPoint" />
          </mxGeometry>
        </mxCell>
        <mxCell id="eYp77SEdqhD2MMEc281C-45" value="" style="endArrow=open;endFill=1;rounded=0;exitX=1;exitY=0.5;exitDx=0;exitDy=0;entryX=0;entryY=0.5;entryDx=0;entryDy=0;labelBackgroundColor=none;fontColor=default;strokeColor=#A8201A;" parent="1" source="eYp77SEdqhD2MMEc281C-41" target="15" edge="1">
          <mxGeometry relative="1" as="geometry">
            <mxPoint x="709" y="419" as="sourcePoint" />
            <mxPoint x="900.25" y="449" as="targetPoint" />
          </mxGeometry>
        </mxCell>
        <mxCell id="eYp77SEdqhD2MMEc281C-100" value="" style="endArrow=open;endFill=1;rounded=0;exitX=0;exitY=0.5;exitDx=0;exitDy=0;entryX=1;entryY=0.5;entryDx=0;entryDy=0;labelBackgroundColor=none;fontColor=default;strokeColor=#A8201A;" parent="1" source="18" target="eYp77SEdqhD2MMEc281C-98" edge="1">
          <mxGeometry relative="1" as="geometry">
            <mxPoint x="904" y="539" as="sourcePoint" />
            <mxPoint x="904" y="579" as="targetPoint" />
          </mxGeometry>
        </mxCell>
        <mxCell id="eYp77SEdqhD2MMEc281C-101" value="" style="endArrow=open;endFill=1;rounded=0;entryX=0;entryY=0.5;entryDx=0;entryDy=0;exitX=1;exitY=0.5;exitDx=0;exitDy=0;labelBackgroundColor=none;fontColor=default;strokeColor=#A8201A;" parent="1" source="eYp77SEdqhD2MMEc281C-90" target="eYp77SEdqhD2MMEc281C-98" edge="1">
          <mxGeometry relative="1" as="geometry">
            <mxPoint x="544" y="606" as="sourcePoint" />
            <mxPoint x="319" y="604" as="targetPoint" />
          </mxGeometry>
        </mxCell>
      </root>
    </mxGraphModel>
  </diagram>
</mxfile>
